<?xml version="1.0" standalone="no"?>
<!DOCTYPE svg PUBLIC "-//W3C//DTD SVG 20010904//EN"
 "http://www.w3.org/TR/2001/REC-SVG-20010904/DTD/svg10.dtd">
<svg version="1.0" xmlns="http://www.w3.org/2000/svg"
 width="512.000000pt" height="512.000000pt" viewBox="0 0 512.000000 512.000000"
 preserveAspectRatio="xMidYMid meet">

<g transform="translate(0.000000,512.000000) scale(0.100000,-0.100000)"
fill="#000000" stroke="none">
<path d="M2173 5106 c-116 -38 -189 -113 -224 -229 -21 -67 -21 -95 -4 -183 7
-30 6 -31 -82 -67 -198 -83 -391 -214 -558 -382 -270 -270 -423 -565 -501
-965 -14 -72 -17 -180 -21 -692 l-5 -608 -37 -10 c-21 -5 -50 -19 -65 -31 -49
-39 -56 -66 -56 -221 0 -156 9 -187 65 -224 l25 -16 0 -492 0 -492 -29 -17
c-50 -29 -61 -69 -61 -222 0 -161 10 -192 75 -230 l42 -25 322 0 c359 0 368 1
417 66 28 36 29 42 32 170 4 150 -10 203 -67 245 l-31 23 0 231 c0 229 0 232
-23 253 -33 31 -80 29 -106 -4 -20 -25 -21 -39 -21 -250 l0 -224 -200 0 -200
0 2 477 3 478 198 3 197 2 0 -100 c0 -94 2 -103 25 -125 31 -32 69 -32 100 0
23 22 25 31 25 127 l0 103 30 20 c55 36 70 85 70 223 0 80 -5 134 -14 155 -16
39 -79 97 -106 97 -50 0 -50 0 -50 194 l0 181 351 295 c193 162 380 326 416
364 113 122 203 273 261 438 44 122 58 203 82 447 11 118 22 216 24 219 2 2
13 -1 24 -7 27 -14 97 -14 124 0 11 6 21 9 24 7 2 -2 13 -101 24 -220 29 -309
56 -421 144 -596 86 -169 227 -342 280 -342 34 0 76 41 76 73 0 15 -25 54 -66
103 -124 149 -200 297 -245 474 -10 41 -29 189 -42 328 l-23 252 22 0 c27 0
142 -35 207 -62 l47 -20 0 -168 c0 -194 16 -277 76 -391 59 -112 280 -350 338
-365 41 -10 80 23 84 70 3 35 -3 43 -131 174 -139 143 -173 194 -202 303 -15
57 -21 289 -7 289 4 0 46 -31 94 -70 220 -177 366 -417 430 -705 17 -75 21
-140 25 -387 3 -164 3 -298 -1 -298 -3 0 -92 72 -197 160 -151 127 -196 160
-220 160 -39 0 -69 -32 -69 -74 0 -40 0 -40 288 -281 l202 -169 0 -183 0 -182
-42 -11 c-24 -7 -56 -24 -72 -38 -47 -44 -56 -79 -56 -214 0 -138 15 -187 70
-223 l30 -20 0 -486 0 -485 -31 -23 c-57 -42 -71 -95 -67 -245 3 -128 4 -134
32 -170 49 -65 58 -66 418 -66 316 0 324 1 362 23 68 39 77 69 74 242 -3 161
-11 186 -65 216 l-23 12 0 493 0 492 25 16 c56 37 65 68 65 224 0 155 -7 182
-56 221 -15 12 -44 26 -65 31 l-37 10 -5 603 c-5 658 -7 688 -72 908 -121 415
-410 793 -778 1018 -94 57 -147 54 -170 -12 -13 -36 12 -65 115 -132 434 -284
695 -712 747 -1224 6 -58 11 -334 11 -632 l0 -529 -130 0 -130 0 0 524 c0 291
-5 569 -10 625 -48 468 -333 878 -755 1089 -81 40 -252 102 -283 102 -9 0 36
53 109 128 141 143 162 172 185 261 50 198 -92 392 -298 408 -54 4 -81 -1
-190 -36 l-127 -40 -108 35 c-123 41 -217 51 -280 30z m242 -176 c69 -22 135
-40 146 -40 11 0 77 18 146 41 143 46 189 48 248 8 71 -49 102 -162 63 -234
-9 -16 -116 -129 -237 -250 l-221 -220 -221 220 c-121 121 -226 231 -233 245
-49 91 -9 206 86 253 49 25 85 21 223 -23z m-265 -505 c63 -63 98 -105 88
-105 -31 0 -202 -62 -283 -102 -423 -211 -707 -621 -755 -1089 -5 -56 -10
-334 -10 -625 l0 -524 -130 0 -130 0 0 528 c0 652 10 772 86 1002 37 113 145
323 221 430 87 122 253 287 373 372 129 91 370 216 420 218 9 0 62 -47 120
-105z m153 -492 c-25 -264 -45 -370 -93 -490 -72 -179 -174 -314 -356 -469
-244 -208 -503 -424 -508 -424 -10 0 -6 482 5 575 38 322 206 627 453 820 46
36 87 65 90 65 3 0 6 -53 6 -117 0 -215 -32 -284 -218 -475 -127 -131 -133
-139 -130 -174 4 -47 43 -80 84 -70 58 15 279 253 338 365 60 114 76 197 76
391 l0 167 28 13 c48 23 196 69 223 70 l25 0 -23 -247z m-945 -2210 l3 -103
-296 0 -295 0 0 105 0 105 293 -2 292 -3 3 -102z m2992 2 l0 -105 -295 0 -295
0 0 98 c0 54 3 102 7 105 3 4 136 7 295 7 l288 0 0 -105z m-92 -737 l2 -478
-200 0 -200 0 0 480 0 480 198 -2 197 -3 3 -477z m-2898 -733 l0 -105 -295 0
-295 0 0 105 0 105 295 0 295 0 0 -105z m2990 0 l0 -105 -295 0 -295 0 0 105
0 105 295 0 295 0 0 -105z"/>
<path d="M1955 1476 c-37 -17 -80 -62 -94 -99 -6 -16 -11 -79 -11 -142 0 -124
8 -155 48 -199 50 -53 70 -56 337 -56 l245 0 0 -415 0 -415 -70 0 c-62 0 -74
-3 -95 -25 -32 -31 -32 -69 0 -100 l24 -25 221 0 221 0 24 25 c32 31 32 69 0
100 -21 22 -33 25 -95 25 l-70 0 0 415 0 415 238 0 c130 0 253 5 272 10 41 11
94 61 109 103 16 42 14 251 -3 290 -16 39 -61 82 -99 96 -45 17 -1163 14
-1202 -3z m1160 -241 l0 -100 -555 0 -555 0 -3 89 c-2 49 -1 95 2 103 5 11
104 13 558 11 l553 -3 0 -100z"/>
</g>
</svg>
