<?xml version="1.0" standalone="no"?>
<!DOCTYPE svg PUBLIC "-//W3C//DTD SVG 20010904//EN"
 "http://www.w3.org/TR/2001/REC-SVG-20010904/DTD/svg10.dtd">
<svg version="1.0" xmlns="http://www.w3.org/2000/svg"
 width="512.000000pt" height="512.000000pt" viewBox="0 0 512.000000 512.000000"
 preserveAspectRatio="xMidYMid meet">

<g transform="translate(0.000000,512.000000) scale(0.100000,-0.100000)"
fill="#000000" stroke="none">
<path d="M3015 5017 c-61 -24 -77 -42 -237 -262 l-162 -225 -116 0 c-124 -1
-169 -11 -224 -54 -59 -45 -80 -104 -84 -239 -2 -64 -1 -129 2 -142 16 -62 84
-85 123 -42 19 19 22 36 25 150 3 127 3 129 31 153 26 22 36 24 135 24 l107 0
175 -247 c96 -136 188 -262 205 -281 62 -73 179 -101 276 -67 51 18 31 36 188
-164 l121 -154 0 -1223 0 -1224 -374 0 c-363 0 -374 -1 -400 -21 -33 -26 -36
-79 -6 -109 20 -20 33 -20 1082 -20 1007 0 1065 1 1103 19 51 23 111 89 124
138 8 26 11 552 11 1678 l0 1640 -24 50 c-49 104 -112 134 -281 135 l-120 1
-130 182 c-180 251 -201 276 -248 298 -40 18 -75 19 -657 18 -446 0 -623 -4
-645 -12z m1205 -143 c0 -3 -127 -170 -281 -371 -229 -297 -284 -362 -294
-351 -16 17 -539 699 -549 716 -6 9 109 12 558 12 311 0 566 -3 566 -6z
m-1028 -379 c101 -132 196 -256 211 -276 l27 -36 -89 -121 c-49 -66 -99 -125
-110 -131 -25 -14 -76 -14 -101 -1 -16 9 -380 510 -380 524 0 3 50 76 112 161
106 147 113 154 129 138 9 -10 100 -126 201 -258z m1268 109 c59 -82 105 -153
101 -159 -5 -5 -86 -119 -181 -253 -95 -133 -182 -249 -193 -257 -24 -17 -80
-20 -106 -6 -14 8 -184 229 -193 252 -6 14 446 589 455 580 5 -5 57 -76 117
-157z m485 -249 l25 -24 0 -1629 0 -1629 -21 -27 -20 -26 -600 0 -599 0 0
1221 0 1221 118 150 c64 82 124 159 133 170 16 21 18 21 58 5 76 -31 168 -19
240 29 20 13 98 113 190 241 86 120 173 242 193 271 l38 52 110 0 c104 0 112
-1 135 -25z m-1343 -387 c45 -47 78 -39 137 32 l50 59 51 -69 c29 -38 50 -74
48 -79 -6 -16 -223 -290 -230 -291 -9 0 -231 282 -231 295 0 5 22 41 49 79
l49 68 25 -34 c14 -18 37 -45 52 -60z"/>
<path d="M4070 3227 c-47 -15 -103 -74 -118 -123 -15 -51 -17 -612 -2 -663 22
-76 55 -107 194 -178 129 -67 132 -68 211 -68 75 0 86 3 177 47 139 67 181 98
212 160 l26 52 0 316 c0 312 0 317 -23 361 -13 24 -43 58 -66 74 l-43 30 -266
2 c-176 1 -279 -2 -302 -10z m534 -153 c14 -13 16 -55 16 -308 0 -291 0 -293
-22 -313 -38 -35 -205 -113 -241 -113 -43 0 -229 90 -251 121 -14 20 -16 62
-16 308 0 251 2 287 17 303 15 16 36 18 249 18 198 0 235 -2 248 -16z"/>
<path d="M2214 3789 c-18 -20 -19 -45 -22 -494 l-3 -472 -73 -12 c-95 -16
-245 -68 -329 -114 -84 -48 -205 -143 -248 -197 l-33 -40 -43 49 c-100 115
-284 226 -458 277 -81 24 -112 28 -300 33 l-210 6 -5 358 c-5 340 -6 359 -24
373 -28 20 -69 17 -97 -5 l-24 -19 -3 -356 -3 -356 -48 0 c-62 0 -156 -46
-206 -102 -62 -68 -80 -119 -80 -228 0 -149 42 -259 162 -425 14 -20 71 -213
168 -574 l146 -543 -127 -287 c-116 -261 -127 -291 -128 -346 0 -72 26 -129
79 -173 58 -47 91 -52 352 -52 228 0 242 1 267 21 36 28 36 80 0 108 -25 20
-39 21 -264 21 -345 0 -336 -18 -171 355 l120 270 896 0 897 0 115 -260 c63
-143 117 -272 120 -287 4 -20 -1 -33 -20 -52 l-26 -26 -681 0 -681 0 -24 -25
c-32 -31 -32 -69 0 -100 l24 -25 682 0 c482 0 693 3 720 11 91 28 153 115 153
214 0 55 -11 85 -128 347 l-127 287 149 548 149 548 56 78 c112 155 156 359
107 491 -42 110 -148 193 -260 203 l-59 6 -3 354 -3 355 -24 19 c-28 22 -69
25 -97 5 -18 -14 -19 -33 -24 -373 l-5 -358 -85 0 -85 0 -5 476 c-4 383 -8
479 -19 492 -20 25 -83 22 -107 -4z m-1272 -1143 c182 -46 348 -154 462 -300
83 -106 124 -111 185 -23 99 143 271 264 453 319 67 20 99 22 388 25 l315 4
34 -23 c77 -52 96 -125 67 -252 -44 -188 -185 -332 -373 -381 -31 -8 -76 -15
-99 -15 -57 0 -94 -30 -94 -76 0 -21 8 -42 21 -55 20 -20 29 -21 103 -17 47 3
112 16 154 30 l73 25 -6 -26 c-3 -14 -56 -213 -118 -441 l-112 -415 -890 0
-889 0 -113 415 c-62 228 -115 427 -118 442 l-6 26 73 -25 c44 -15 105 -27
154 -31 73 -4 83 -3 103 17 13 13 21 34 21 55 0 46 -37 76 -94 76 -109 0 -248
62 -336 150 -128 128 -189 354 -120 449 49 70 52 71 376 71 275 0 297 -1 386
-24z"/>
</g>
</svg>
