<?xml version="1.0" standalone="no"?>
<!DOCTYPE svg PUBLIC "-//W3C//DTD SVG 20010904//EN"
 "http://www.w3.org/TR/2001/REC-SVG-20010904/DTD/svg10.dtd">
<svg version="1.0" xmlns="http://www.w3.org/2000/svg"
 width="512.000000pt" height="512.000000pt" viewBox="0 0 512.000000 512.000000"
 preserveAspectRatio="xMidYMid meet">

<g transform="translate(0.000000,512.000000) scale(0.100000,-0.100000)"
fill="#000000" stroke="none">
<path d="M2410 4975 l0 -145 -145 0 -145 0 0 -150 0 -150 145 0 145 0 0 -218
0 -218 -1030 -633 c-566 -348 -1030 -635 -1030 -638 0 -12 153 -253 158 -249
4 2 68 41 142 86 74 46 174 107 223 136 l87 54 0 -328 -1 -327 -480 -294
c-464 -284 -479 -294 -466 -315 7 -11 42 -67 76 -123 35 -57 68 -103 73 -103
6 0 38 17 72 38 34 22 71 44 84 51 l22 12 0 -581 0 -580 -170 0 -170 0 0 -150
0 -150 2560 0 2560 0 0 150 0 150 -170 0 -170 0 0 580 c0 319 2 580 4 580 3 0
41 -23 86 -51 45 -27 86 -49 91 -47 6 2 43 57 84 123 59 95 71 122 61 130 -7
6 -223 138 -479 295 l-466 285 -1 329 0 328 23 -14 c12 -8 105 -66 207 -128
102 -62 195 -119 206 -127 21 -13 25 -9 99 113 69 112 76 129 62 139 -9 7
-473 293 -1032 636 l-1015 624 0 217 0 218 145 0 145 0 0 150 0 150 -145 0
-145 0 0 145 0 145 -150 0 -150 0 0 -145z m808 -1545 l642 -394 0 -1368 0
-1368 -320 0 -320 0 0 450 0 451 23 -12 c12 -7 50 -29 83 -50 l62 -37 77 125
c62 103 74 128 63 138 -7 7 -228 144 -490 305 l-478 292 -472 -291 c-260 -159
-481 -296 -492 -304 -17 -13 -14 -20 55 -133 39 -65 75 -122 78 -126 4 -4 22
3 41 16 19 12 56 35 83 50 l47 28 0 -451 0 -451 -320 0 -320 0 0 1368 0 1367
647 398 c356 219 653 396 659 395 5 -2 299 -181 652 -398z m-2258 -2360 l0
-770 -160 0 -160 0 0 674 0 674 153 95 c83 53 155 96 160 96 4 1 7 -345 7
-769z m3363 676 l152 -94 3 -676 2 -676 -160 0 -160 0 0 770 c0 424 2 770 5
770 3 0 74 -42 158 -94z m-1583 -247 l180 -111 0 -544 0 -544 -360 0 -360 0 0
544 0 544 178 110 c97 61 178 111 179 111 2 1 84 -49 183 -110z"/>
<path d="M2441 3164 c-313 -84 -453 -452 -274 -721 204 -307 661 -271 821 64
36 77 37 80 37 198 0 118 -1 121 -37 198 -101 210 -330 320 -547 261z m217
-317 c53 -35 75 -84 70 -156 -5 -71 -32 -111 -94 -141 -83 -41 -190 -5 -229
75 -23 51 -17 140 13 182 52 74 162 92 240 40z"/>
</g>
</svg>
