<?xml version="1.0" standalone="no"?>
<!DOCTYPE svg PUBLIC "-//W3C//DTD SVG 20010904//EN"
 "http://www.w3.org/TR/2001/REC-SVG-20010904/DTD/svg10.dtd">
<svg version="1.0" xmlns="http://www.w3.org/2000/svg"
 width="512.000000pt" height="512.000000pt" viewBox="0 0 512.000000 512.000000"
 preserveAspectRatio="xMidYMid meet">

<g transform="translate(0.000000,512.000000) scale(0.100000,-0.100000)"
fill="#000000" stroke="none">
<path d="M2048 4388 c-307 -19 -584 -129 -891 -356 -522 -384 -822 -865 -934
-1492 -21 -119 -26 -187 -30 -380 -4 -213 -3 -245 17 -340 101 -492 393 -818
847 -944 158 -44 155 -46 59 45 -198 187 -317 407 -373 686 -24 121 -24 405 0
563 88 567 310 1035 657 1380 268 267 570 432 888 485 150 25 381 17 514 -18
103 -27 238 -86 310 -134 71 -49 73 -48 37 1 -95 134 -283 294 -438 375 -203
106 -406 145 -663 129z"/>
<path d="M2770 3943 c0 -3 12 -31 27 -62 14 -31 36 -81 48 -111 l21 -55 75 -7
c59 -6 295 -63 358 -86 30 -11 -12 40 -83 101 -79 67 -192 136 -284 172 -73
30 -162 56 -162 48z"/>
<path d="M2693 3649 c-322 -30 -598 -221 -728 -503 -18 -39 -40 -97 -48 -128
l-15 -58 41 36 c50 42 142 87 217 105 83 20 257 15 374 -11 433 -95 839 -340
1256 -759 223 -224 370 -416 488 -641 167 -317 208 -646 102 -814 -16 -25 -25
-46 -20 -46 5 0 33 9 62 21 171 67 357 260 434 450 103 254 93 523 -32 816
-254 600 -708 1073 -1274 1328 -326 148 -646 224 -857 204z"/>
<path d="M2260 3024 c-351 -36 -471 -282 -335 -690 65 -196 214 -446 391 -655
306 -359 639 -624 1004 -798 245 -116 442 -166 625 -158 193 8 298 64 359 190
38 78 61 199 50 266 l-6 38 -87 17 c-318 62 -716 275 -1050 562 -134 115 -356
343 -442 454 -183 235 -315 482 -374 695 l-22 80 -39 1 c-21 1 -55 0 -74 -2z"/>
<path d="M2857 2767 c-22 -81 -85 -253 -123 -332 -10 -22 377 -475 406 -475
13 0 164 305 213 430 69 175 71 157 -20 222 -146 105 -407 258 -439 258 -5 0
-22 -46 -37 -103z"/>
<path d="M2159 1644 c-18 -20 -70 -65 -114 -100 -295 -238 -603 -367 -907
-381 -145 -7 -141 -1 -64 -91 154 -180 338 -264 576 -264 169 0 297 31 485
121 146 69 320 183 473 308 13 11 8 19 -34 55 -99 86 -196 184 -282 285 -48
57 -89 103 -93 103 -3 0 -21 -16 -40 -36z"/>
</g>
</svg>
